<mxfile host="app.diagrams.net" agent="Mozilla/5.0 (Windows NT 10.0; Win64; x64) AppleWebKit/537.36 (KHTML, like Gecko) Chrome/135.0.0.0 Safari/537.36" version="26.2.5">
  <diagram name="Page-1" id="aWSH5pZHLVV95Qhtf7EA">
    <mxGraphModel dx="1013" dy="1520" grid="0" gridSize="10" guides="1" tooltips="1" connect="1" arrows="1" fold="1" page="0" pageScale="1" pageWidth="850" pageHeight="1100" math="0" shadow="0">
      <root>
        <mxCell id="0" />
        <mxCell id="1" parent="0" />
        <mxCell id="5lR84gp46iY1apbWENHx-11" style="edgeStyle=none;curved=1;rounded=0;orthogonalLoop=1;jettySize=auto;html=1;exitX=0.5;exitY=1;exitDx=0;exitDy=0;entryX=0.5;entryY=0;entryDx=0;entryDy=0;fontSize=12;startSize=8;endSize=8;" edge="1" parent="1" source="5lR84gp46iY1apbWENHx-2" target="5lR84gp46iY1apbWENHx-5">
          <mxGeometry relative="1" as="geometry" />
        </mxCell>
        <mxCell id="5lR84gp46iY1apbWENHx-2" value="init" style="rounded=0;whiteSpace=wrap;html=1;" vertex="1" parent="1">
          <mxGeometry x="-4" y="-330" width="120" height="45" as="geometry" />
        </mxCell>
        <mxCell id="5lR84gp46iY1apbWENHx-8" style="edgeStyle=none;curved=1;rounded=0;orthogonalLoop=1;jettySize=auto;html=1;exitX=1;exitY=0.5;exitDx=0;exitDy=0;fontSize=12;startSize=8;endSize=8;entryX=0.5;entryY=0;entryDx=0;entryDy=0;" edge="1" parent="1" source="5lR84gp46iY1apbWENHx-5" target="5lR84gp46iY1apbWENHx-7">
          <mxGeometry relative="1" as="geometry">
            <mxPoint x="202.5" y="-61" as="targetPoint" />
            <Array as="points">
              <mxPoint x="187" y="-61" />
              <mxPoint x="199" y="-60" />
            </Array>
          </mxGeometry>
        </mxCell>
        <mxCell id="5lR84gp46iY1apbWENHx-12" style="edgeStyle=none;curved=1;rounded=0;orthogonalLoop=1;jettySize=auto;html=1;exitX=0;exitY=0.5;exitDx=0;exitDy=0;fontSize=12;startSize=8;endSize=8;entryX=0;entryY=0.5;entryDx=0;entryDy=0;" edge="1" parent="1" source="5lR84gp46iY1apbWENHx-5" target="5lR84gp46iY1apbWENHx-19">
          <mxGeometry relative="1" as="geometry">
            <mxPoint x="51" y="-129" as="targetPoint" />
            <Array as="points">
              <mxPoint x="-87" y="-56" />
              <mxPoint x="-90" y="-60" />
              <mxPoint x="-89" y="-119" />
              <mxPoint x="-91" y="-216" />
              <mxPoint x="-91" y="-222" />
            </Array>
          </mxGeometry>
        </mxCell>
        <mxCell id="5lR84gp46iY1apbWENHx-5" value="&amp;nbsp;irCount &amp;gt; carMax;" style="rhombus;whiteSpace=wrap;html=1;" vertex="1" parent="1">
          <mxGeometry x="-29" y="-101" width="159" height="80" as="geometry" />
        </mxCell>
        <mxCell id="5lR84gp46iY1apbWENHx-7" value="advance to&amp;nbsp;&lt;div&gt;next state&lt;/div&gt;" style="rounded=0;whiteSpace=wrap;html=1;" vertex="1" parent="1">
          <mxGeometry x="136" y="44" width="120" height="60" as="geometry" />
        </mxCell>
        <mxCell id="5lR84gp46iY1apbWENHx-21" style="edgeStyle=none;curved=1;rounded=0;orthogonalLoop=1;jettySize=auto;html=1;exitX=0.5;exitY=1;exitDx=0;exitDy=0;entryX=0.5;entryY=0;entryDx=0;entryDy=0;fontSize=12;startSize=8;endSize=8;" edge="1" parent="1" source="5lR84gp46iY1apbWENHx-15" target="5lR84gp46iY1apbWENHx-18">
          <mxGeometry relative="1" as="geometry" />
        </mxCell>
        <mxCell id="5lR84gp46iY1apbWENHx-15" value="init" style="rounded=0;whiteSpace=wrap;html=1;" vertex="1" parent="1">
          <mxGeometry x="324" y="-330" width="120" height="45" as="geometry" />
        </mxCell>
        <mxCell id="5lR84gp46iY1apbWENHx-22" style="edgeStyle=none;curved=1;rounded=0;orthogonalLoop=1;jettySize=auto;html=1;exitX=0;exitY=0.5;exitDx=0;exitDy=0;fontSize=12;startSize=8;endSize=8;entryX=0;entryY=0.5;entryDx=0;entryDy=0;" edge="1" parent="1" source="5lR84gp46iY1apbWENHx-18" target="5lR84gp46iY1apbWENHx-20">
          <mxGeometry relative="1" as="geometry">
            <mxPoint x="197" y="-211" as="targetPoint" />
            <Array as="points">
              <mxPoint x="224" y="-105" />
              <mxPoint x="227" y="-114" />
              <mxPoint x="224" y="-221" />
              <mxPoint x="232" y="-222" />
              <mxPoint x="247" y="-221" />
            </Array>
          </mxGeometry>
        </mxCell>
        <mxCell id="5lR84gp46iY1apbWENHx-24" style="edgeStyle=none;curved=1;rounded=0;orthogonalLoop=1;jettySize=auto;html=1;fontSize=12;startSize=8;endSize=8;entryX=0.558;entryY=0.014;entryDx=0;entryDy=0;entryPerimeter=0;exitX=1;exitY=0.5;exitDx=0;exitDy=0;" edge="1" parent="1" source="5lR84gp46iY1apbWENHx-18" target="5lR84gp46iY1apbWENHx-23">
          <mxGeometry relative="1" as="geometry">
            <mxPoint x="567" y="-108" as="targetPoint" />
            <Array as="points">
              <mxPoint x="565" y="-113" />
              <mxPoint x="568" y="-106" />
              <mxPoint x="569" y="-110" />
            </Array>
          </mxGeometry>
        </mxCell>
        <mxCell id="5lR84gp46iY1apbWENHx-18" value="press True?" style="rhombus;whiteSpace=wrap;html=1;" vertex="1" parent="1">
          <mxGeometry x="294" y="-148" width="186" height="80" as="geometry" />
        </mxCell>
        <mxCell id="5lR84gp46iY1apbWENHx-19" value="poll IR sensor" style="rounded=0;whiteSpace=wrap;html=1;" vertex="1" parent="1">
          <mxGeometry x="-9.5" y="-242" width="120" height="45" as="geometry" />
        </mxCell>
        <mxCell id="5lR84gp46iY1apbWENHx-20" value="poll SW for press" style="rounded=0;whiteSpace=wrap;html=1;" vertex="1" parent="1">
          <mxGeometry x="327" y="-242" width="120" height="45" as="geometry" />
        </mxCell>
        <mxCell id="5lR84gp46iY1apbWENHx-23" value="ISR: enter 20 second RED state.&amp;nbsp;&lt;div&gt;&lt;br&gt;&lt;/div&gt;&lt;div&gt;Resume default operation when complete.&amp;nbsp;&lt;/div&gt;&lt;div&gt;&lt;br&gt;&lt;/div&gt;&lt;div&gt;Reset irCount to 0&lt;/div&gt;" style="rounded=0;whiteSpace=wrap;html=1;" vertex="1" parent="1">
          <mxGeometry x="501" y="-42" width="120" height="143" as="geometry" />
        </mxCell>
        <mxCell id="5lR84gp46iY1apbWENHx-25" value="" style="shape=umlActor;verticalLabelPosition=bottom;verticalAlign=top;html=1;outlineConnect=0;" vertex="1" parent="1">
          <mxGeometry x="634" y="76" width="17" height="25" as="geometry" />
        </mxCell>
        <mxCell id="5lR84gp46iY1apbWENHx-30" style="edgeStyle=none;curved=1;rounded=0;orthogonalLoop=1;jettySize=auto;html=1;exitX=1;exitY=0.5;exitDx=0;exitDy=0;fontSize=12;startSize=8;endSize=8;entryX=0.5;entryY=0;entryDx=0;entryDy=0;" edge="1" parent="1" source="5lR84gp46iY1apbWENHx-29" target="5lR84gp46iY1apbWENHx-15">
          <mxGeometry relative="1" as="geometry">
            <mxPoint x="387.39130434782646" y="-407.95652173913027" as="targetPoint" />
            <Array as="points">
              <mxPoint x="393" y="-420" />
            </Array>
          </mxGeometry>
        </mxCell>
        <mxCell id="5lR84gp46iY1apbWENHx-31" style="edgeStyle=none;curved=1;rounded=0;orthogonalLoop=1;jettySize=auto;html=1;exitX=0;exitY=0.5;exitDx=0;exitDy=0;entryX=0.5;entryY=0;entryDx=0;entryDy=0;fontSize=12;startSize=8;endSize=8;" edge="1" parent="1" source="5lR84gp46iY1apbWENHx-29" target="5lR84gp46iY1apbWENHx-2">
          <mxGeometry relative="1" as="geometry">
            <Array as="points">
              <mxPoint x="39" y="-421" />
            </Array>
          </mxGeometry>
        </mxCell>
        <mxCell id="5lR84gp46iY1apbWENHx-29" value="Start" style="shape=parallelogram;perimeter=parallelogramPerimeter;whiteSpace=wrap;html=1;fixedSize=1;" vertex="1" parent="1">
          <mxGeometry x="165" y="-438" width="120" height="60" as="geometry" />
        </mxCell>
      </root>
    </mxGraphModel>
  </diagram>
</mxfile>
